<svg width="50" height="45" viewBox="0 0 50 45" fill="none" xmlns="http://www.w3.org/2000/svg">
<path d="M43.8339 13.7186C43.9607 12.1328 43.7697 10.5376 43.2722 9.02648C42.7747 7.51537 41.9807 6.11873 40.9366 4.91837C39.8163 3.63013 38.4326 2.59731 36.8789 1.88966C35.3252 1.18201 33.6378 0.816021 31.9306 0.816407C25.3437 0.816407 19.9849 6.17397 19.9849 12.7593C19.9849 19.3447 25.3437 24.7022 31.9306 24.7022C33.682 24.7022 35.4192 24.3147 36.9972 23.5771C38.146 25.5596 40.2895 26.8969 42.7409 26.8969C46.3995 26.8969 49.3759 23.9205 49.3759 20.2619C49.3759 16.9758 46.974 14.2415 43.8339 13.7186ZM31.2346 19.5407V18.2979C29.4719 18.0263 28.1327 16.7444 28.1327 15.2075C28.1327 15.0229 28.2061 14.8459 28.3366 14.7154C28.4671 14.5849 28.6441 14.5116 28.8287 14.5116C29.0133 14.5116 29.1903 14.5849 29.3208 14.7154C29.4513 14.8459 29.5246 15.0229 29.5246 15.2075C29.5246 16.1738 30.6039 16.9599 31.9306 16.9599C33.2348 16.9599 34.3366 16.1574 34.3366 15.2075C34.3366 14.0362 33.6031 13.7818 31.8021 13.4431C30.2535 13.1519 28.1327 12.7533 28.1327 10.3108C28.1327 8.77394 29.4719 7.492 31.2346 7.22046V5.97489C31.2346 5.79032 31.308 5.61331 31.4385 5.48279C31.569 5.35228 31.746 5.27896 31.9306 5.27896C32.1151 5.27896 32.2922 5.35228 32.4227 5.48279C32.5532 5.61331 32.6265 5.79032 32.6265 5.97489V7.22046C34.3893 7.492 35.7285 8.77394 35.7285 10.3108C35.7285 10.4954 35.6552 10.6724 35.5247 10.8029C35.3941 10.9334 35.2171 11.0068 35.0326 11.0068C34.848 11.0068 34.671 10.9334 34.5405 10.8029C34.41 10.6724 34.3366 10.4954 34.3366 10.3108C34.3366 9.36094 33.2348 8.55846 31.9306 8.55846C30.6039 8.55846 29.5246 9.34454 29.5246 10.3108C29.5246 11.4822 30.2581 11.7367 32.0593 12.0753C33.6077 12.3664 35.7285 12.7651 35.7285 15.2075C35.7285 16.7444 34.3893 18.0263 32.6265 18.2979V19.5406C32.6265 19.7251 32.5532 19.9021 32.4227 20.0327C32.2922 20.1632 32.1151 20.2365 31.9306 20.2365C31.746 20.2365 31.569 20.1632 31.4385 20.0327C31.308 19.9021 31.2346 19.7252 31.2346 19.5407ZM42.7409 25.505C39.8498 25.505 37.4978 23.153 37.4978 20.2619C37.4978 17.3709 39.8498 15.0189 42.7409 15.0189C45.632 15.0189 47.984 17.3709 47.984 20.2619C47.984 23.153 45.632 25.505 42.7409 25.505ZM46.1019 18.0018C46.1649 18.068 46.2142 18.146 46.2471 18.2312C46.2799 18.3165 46.2957 18.4074 46.2934 18.4988C46.2911 18.5901 46.2708 18.6801 46.2338 18.7637C46.1967 18.8472 46.1435 18.9226 46.0773 18.9856L42.3329 22.5467C42.2037 22.6699 42.032 22.7386 41.8535 22.7385C41.762 22.7386 41.6715 22.7206 41.587 22.6856C41.5026 22.6506 41.4259 22.5993 41.3613 22.5346L39.392 20.5653C39.2633 20.4344 39.1914 20.258 39.1922 20.0744C39.1929 19.8908 39.2662 19.7149 39.396 19.5851C39.5258 19.4552 39.7017 19.382 39.8853 19.3812C40.0689 19.3805 40.2453 19.4523 40.3762 19.5811L41.8656 21.0706L45.1182 17.9771C45.1844 17.9142 45.2623 17.8648 45.3476 17.832C45.4329 17.7991 45.5238 17.7834 45.6152 17.7857C45.7065 17.788 45.7965 17.8082 45.88 17.8453C45.9636 17.8824 46.039 17.9356 46.1019 18.0018ZM35.0888 26.7221H21.1649C21.208 25.5606 21.1877 24.8891 21.0717 22.3105C20.9227 18.9328 18.5121 17.4517 16.7967 17.4517C16.7682 17.4517 16.7394 17.4521 16.7111 17.4529C15.4336 17.4903 14.5531 18.3298 14.57 19.4941C14.5989 21.5439 14.6072 22.0289 14.6107 22.2369C14.6125 22.34 14.6147 22.5196 14.6174 22.7758L14.6375 24.6554C14.6403 24.9509 14.6131 25.3356 14.4666 25.4909C14.355 25.6093 14.1084 25.6896 13.7961 25.7912C12.8741 26.0912 11.4807 26.5445 10.3258 28.9892L10.3082 29.0266C10.2377 29.1772 10.177 29.3066 10.0535 29.3982V28.8775C10.0535 27.7435 9.19282 26.8208 8.1348 26.8208H2.20723C1.65849 26.8208 1.10776 27.0798 0.734055 27.5135C0.372967 27.9326 0.21752 28.4535 0.296436 28.9816L2.32232 42.3853C2.50142 43.5541 3.27041 44.3394 4.2358 44.3394H8.135C9.19302 44.3394 10.0537 43.4154 10.0537 42.2798V41.5711C10.6667 41.5837 11.0022 41.8857 11.578 42.4549C12.3416 43.2098 13.3873 44.2436 15.711 44.2436H26.2536C27.748 44.2436 28.964 43.0264 28.964 41.5304C28.964 40.9808 28.7994 40.4691 28.5176 40.0412C29.5518 39.6585 30.291 38.6633 30.291 37.4987C30.291 36.7702 30.0018 36.1082 29.5329 35.6203C30.1815 35.1246 30.6009 34.3439 30.6009 33.4669C30.6009 32.9874 30.4754 32.5369 30.2562 32.1456H35.089C36.6557 32.1456 37.4754 30.7814 37.4754 29.4338C37.4754 28.0863 36.6555 26.7221 35.0888 26.7221ZM5.86143 32.5401C5.86143 32.7247 5.78811 32.9017 5.6576 33.0322C5.52708 33.1627 5.35007 33.236 5.1655 33.236C4.98092 33.236 4.80391 33.1627 4.6734 33.0322C4.54288 32.9017 4.46956 32.7247 4.46956 32.5401V30.1368C4.46956 29.9522 4.54288 29.7752 4.6734 29.6447C4.80391 29.5142 4.98092 29.4409 5.1655 29.4409C5.35007 29.4409 5.52708 29.5142 5.6576 29.6447C5.78811 29.7752 5.86143 29.9522 5.86143 30.1368V32.5401ZM26.2536 42.8516H22.0107C21.2821 42.8516 20.6894 42.2588 20.6894 41.5303C20.6894 40.8018 21.2821 40.209 22.0107 40.209C22.061 40.209 22.1099 40.2034 22.1571 40.1933C22.2525 40.2035 22.3493 40.209 22.4474 40.209H26.2537C26.9806 40.209 27.5722 40.8018 27.5722 41.5303C27.5722 42.2588 26.9806 42.8516 26.2536 42.8516ZM27.5777 38.8171H22.4473C21.7188 38.8171 21.126 38.2257 21.126 37.4986C21.126 36.7716 21.7188 36.1773 22.4473 36.1773C22.4827 36.1773 22.5173 36.1738 22.5513 36.1688C22.6193 36.1739 22.6878 36.1773 22.7572 36.1773H27.5777C28.3063 36.1773 28.899 36.7701 28.899 37.4986C28.899 38.2271 28.3063 38.8171 27.5777 38.8171ZM27.8876 34.7855H22.7572C22.0287 34.7855 21.4359 34.1941 21.4359 33.4669C21.4359 32.7398 22.0287 32.1456 22.7572 32.1456H27.8876C28.6162 32.1456 29.209 32.7384 29.209 33.4669C29.209 34.1954 28.6162 34.7855 27.8876 34.7855ZM35.0888 30.7538H22.7572C21.2612 30.7538 20.044 31.971 20.044 33.467C20.044 34.1948 20.3331 34.8559 20.8021 35.3433C20.1535 35.8396 19.7341 36.6209 19.7341 37.4987C19.7341 38.1993 20.0016 38.8386 20.4399 39.3202C19.7492 39.8125 19.2975 40.6195 19.2975 41.5304C19.2975 42.0099 19.423 42.4604 19.6422 42.8517H15.711C13.9591 42.8517 13.2779 42.1782 12.5565 41.4651C11.9529 40.8685 11.2688 40.1941 10.0537 40.1794V30.8751C11.0777 30.6655 11.4125 29.9509 11.569 29.6165L11.5845 29.5834C12.4826 27.6823 13.4092 27.3808 14.2268 27.1147C15.038 26.8509 16.0476 26.5223 16.0292 24.6411L16.0091 22.7614C16.0064 22.5007 16.0042 22.3179 16.0024 22.2131C15.9989 22.0055 15.9906 21.5212 15.9617 19.4743C15.9545 18.9727 16.3874 18.8548 16.752 18.844C17.8999 18.8109 19.5715 19.8825 19.6814 22.3724C19.8177 25.4006 19.817 25.77 19.7491 27.2671C19.5659 31.1764 17.8917 32.771 13.9699 32.771C13.7854 32.771 13.6084 32.8443 13.4778 32.9748C13.3473 33.1053 13.274 33.2823 13.274 33.4669C13.274 33.6515 13.3473 33.8285 13.4778 33.959C13.6084 34.0895 13.7854 34.1628 13.9699 34.1628C19.5764 34.1628 20.8072 30.9122 21.0834 28.114H35.089C35.8741 28.114 36.0836 28.9437 36.0836 29.4338C36.0836 29.9239 35.874 30.7538 35.0888 30.7538Z" fill="#1D8751"/>
</svg>
